<svg width="283" height="148" viewBox="0 0 283 148" fill="none" xmlns="http://www.w3.org/2000/svg">
<rect width="283" height="148" fill="#101010"/>
<path d="M110.767 35.4545V36.3068H107.375V35.4545H110.767ZM108.364 33.8864H109.369V40.125C109.369 40.4091 109.411 40.6222 109.493 40.7642C109.578 40.9034 109.686 40.9972 109.817 41.0455C109.95 41.0909 110.091 41.1136 110.239 41.1136C110.349 41.1136 110.44 41.108 110.511 41.0966C110.582 41.0824 110.639 41.071 110.682 41.0625L110.886 41.9659C110.818 41.9915 110.723 42.017 110.601 42.0426C110.479 42.071 110.324 42.0852 110.136 42.0852C109.852 42.0852 109.574 42.0241 109.301 41.902C109.031 41.7798 108.807 41.5938 108.628 41.3438C108.452 41.0938 108.364 40.7784 108.364 40.3977V33.8864ZM113.426 38.0625V42H112.42V33.2727H113.426V36.4773H113.511C113.665 36.1392 113.895 35.8707 114.202 35.6719C114.511 35.4702 114.923 35.3693 115.438 35.3693C115.884 35.3693 116.274 35.4588 116.609 35.6378C116.945 35.8139 117.205 36.0852 117.389 36.4517C117.577 36.8153 117.67 37.2784 117.67 37.8409V42H116.665V37.9091C116.665 37.3892 116.53 36.9872 116.26 36.7031C115.993 36.4162 115.622 36.2727 115.148 36.2727C114.818 36.2727 114.523 36.3423 114.261 36.4815C114.003 36.6207 113.798 36.8239 113.648 37.0909C113.5 37.358 113.426 37.6818 113.426 38.0625ZM119.51 42V35.4545H120.516V42H119.51ZM120.022 34.3636C119.826 34.3636 119.657 34.2969 119.515 34.1634C119.375 34.0298 119.306 33.8693 119.306 33.6818C119.306 33.4943 119.375 33.3338 119.515 33.2003C119.657 33.0668 119.826 33 120.022 33C120.218 33 120.385 33.0668 120.525 33.2003C120.667 33.3338 120.738 33.4943 120.738 33.6818C120.738 33.8693 120.667 34.0298 120.525 34.1634C120.385 34.2969 120.218 34.3636 120.022 34.3636ZM123.364 38.0625V42H122.358V35.4545H123.33V36.4773H123.415C123.568 36.1449 123.801 35.8778 124.114 35.6761C124.426 35.4716 124.83 35.3693 125.324 35.3693C125.767 35.3693 126.155 35.4602 126.487 35.642C126.82 35.821 127.078 36.0938 127.263 36.4602C127.447 36.8239 127.54 37.2841 127.54 37.8409V42H126.534V37.9091C126.534 37.3949 126.401 36.9943 126.134 36.7074C125.866 36.4176 125.5 36.2727 125.034 36.2727C124.713 36.2727 124.426 36.3423 124.173 36.4815C123.923 36.6207 123.726 36.8239 123.581 37.0909C123.436 37.358 123.364 37.6818 123.364 38.0625ZM132.02 44.5909C131.534 44.5909 131.116 44.5284 130.767 44.4034C130.417 44.2812 130.126 44.1193 129.893 43.9176C129.663 43.7188 129.48 43.5057 129.343 43.2784L130.145 42.7159C130.235 42.8352 130.35 42.9716 130.49 43.125C130.629 43.2812 130.819 43.4162 131.061 43.5298C131.305 43.6463 131.625 43.7045 132.02 43.7045C132.548 43.7045 132.984 43.5767 133.328 43.321C133.672 43.0653 133.843 42.6648 133.843 42.1193V40.7898H133.758C133.684 40.9091 133.579 41.0568 133.443 41.233C133.309 41.4062 133.116 41.5611 132.863 41.6974C132.613 41.831 132.275 41.8977 131.849 41.8977C131.321 41.8977 130.846 41.7727 130.426 41.5227C130.008 41.2727 129.677 40.9091 129.433 40.4318C129.191 39.9545 129.071 39.375 129.071 38.6932C129.071 38.0227 129.189 37.4389 129.424 36.9418C129.66 36.4418 129.988 36.0554 130.409 35.7827C130.829 35.5071 131.315 35.3693 131.866 35.3693C132.292 35.3693 132.63 35.4403 132.88 35.5824C133.133 35.7216 133.326 35.8807 133.46 36.0597C133.596 36.2358 133.701 36.3807 133.775 36.4943H133.877V35.4545H134.849V42.1875C134.849 42.75 134.721 43.2074 134.466 43.5597C134.213 43.9148 133.872 44.1747 133.443 44.3395C133.017 44.5071 132.542 44.5909 132.02 44.5909ZM131.985 40.9943C132.389 40.9943 132.73 40.902 133.008 40.7173C133.287 40.5327 133.498 40.267 133.643 39.9205C133.788 39.5739 133.86 39.1591 133.86 38.6761C133.86 38.2045 133.789 37.7884 133.647 37.4276C133.505 37.0668 133.295 36.7841 133.017 36.5795C132.738 36.375 132.395 36.2727 131.985 36.2727C131.559 36.2727 131.204 36.3807 130.92 36.5966C130.639 36.8125 130.427 37.1023 130.285 37.4659C130.146 37.8295 130.076 38.233 130.076 38.6761C130.076 39.1307 130.147 39.5327 130.289 39.8821C130.434 40.2287 130.647 40.5014 130.929 40.7003C131.213 40.8963 131.565 40.9943 131.985 40.9943ZM139.52 42.1193C138.877 42.1193 138.331 41.9446 137.879 41.5952C137.427 41.2429 137.082 40.733 136.843 40.0653C136.605 39.3949 136.485 38.5852 136.485 37.6364C136.485 36.6932 136.605 35.8878 136.843 35.2202C137.085 34.5497 137.431 34.0384 137.883 33.6861C138.338 33.331 138.883 33.1534 139.52 33.1534C140.156 33.1534 140.7 33.331 141.152 33.6861C141.606 34.0384 141.953 34.5497 142.191 35.2202C142.433 35.8878 142.554 36.6932 142.554 37.6364C142.554 38.5852 142.434 39.3949 142.196 40.0653C141.957 40.733 141.612 41.2429 141.16 41.5952C140.708 41.9446 140.162 42.1193 139.52 42.1193ZM139.52 41.1818C140.156 41.1818 140.65 40.875 141.002 40.2614C141.355 39.6477 141.531 38.7727 141.531 37.6364C141.531 36.8807 141.45 36.2372 141.288 35.706C141.129 35.1747 140.899 34.7699 140.598 34.4915C140.299 34.2131 139.94 34.0739 139.52 34.0739C138.889 34.0739 138.396 34.3849 138.041 35.0071C137.686 35.6264 137.508 36.5028 137.508 37.6364C137.508 38.392 137.588 39.0341 137.747 39.5625C137.906 40.0909 138.135 40.4929 138.433 40.7685C138.734 41.044 139.096 41.1818 139.52 41.1818Z" fill="white"/>
<path d="M107 38.071H143.27V38.8892H107V38.071Z" fill="white"/>
<path d="M98.767 52.4545V53.3068H95.375V52.4545H98.767ZM96.3636 50.8864H97.3693V57.125C97.3693 57.4091 97.4105 57.6222 97.4929 57.7642C97.5781 57.9034 97.6861 57.9972 97.8168 58.0455C97.9503 58.0909 98.0909 58.1136 98.2386 58.1136C98.3494 58.1136 98.4403 58.108 98.5114 58.0966C98.5824 58.0824 98.6392 58.071 98.6818 58.0625L98.8864 58.9659C98.8182 58.9915 98.723 59.017 98.6009 59.0426C98.4787 59.071 98.3239 59.0852 98.1364 59.0852C97.8523 59.0852 97.5739 59.0241 97.3011 58.902C97.0313 58.7798 96.8068 58.5938 96.6278 58.3438C96.4517 58.0938 96.3636 57.7784 96.3636 57.3977V50.8864ZM103.109 59.1193C102.467 59.1193 101.92 58.9446 101.469 58.5952C101.017 58.2429 100.672 57.733 100.433 57.0653C100.195 56.3949 100.075 55.5852 100.075 54.6364C100.075 53.6932 100.195 52.8878 100.433 52.2202C100.675 51.5497 101.021 51.0384 101.473 50.6861C101.928 50.331 102.473 50.1534 103.109 50.1534C103.746 50.1534 104.29 50.331 104.741 50.6861C105.196 51.0384 105.543 51.5497 105.781 52.2202C106.023 52.8878 106.143 53.6932 106.143 54.6364C106.143 55.5852 106.024 56.3949 105.786 57.0653C105.547 57.733 105.202 58.2429 104.75 58.5952C104.298 58.9446 103.751 59.1193 103.109 59.1193ZM103.109 58.1818C103.746 58.1818 104.24 57.875 104.592 57.2614C104.945 56.6477 105.121 55.7727 105.121 54.6364C105.121 53.8807 105.04 53.2372 104.878 52.706C104.719 52.1747 104.489 51.7699 104.188 51.4915C103.889 51.2131 103.53 51.0739 103.109 51.0739C102.479 51.0739 101.986 51.3849 101.631 52.0071C101.276 52.6264 101.098 53.5028 101.098 54.6364C101.098 55.392 101.178 56.0341 101.337 56.5625C101.496 57.0909 101.724 57.4929 102.023 57.7685C102.324 58.044 102.686 58.1818 103.109 58.1818Z" fill="white"/>
<path d="M95 55.071H106.859V55.8892H95V55.071Z" fill="white"/>
<path d="M128.767 59.4545V60.3068H125.375V59.4545H128.767ZM126.364 57.8864H127.369V64.125C127.369 64.4091 127.411 64.6222 127.493 64.7642C127.578 64.9034 127.686 64.9972 127.817 65.0455C127.95 65.0909 128.091 65.1136 128.239 65.1136C128.349 65.1136 128.44 65.108 128.511 65.0966C128.582 65.0824 128.639 65.071 128.682 65.0625L128.886 65.9659C128.818 65.9915 128.723 66.017 128.601 66.0426C128.479 66.071 128.324 66.0852 128.136 66.0852C127.852 66.0852 127.574 66.0241 127.301 65.902C127.031 65.7798 126.807 65.5938 126.628 65.3438C126.452 65.0938 126.364 64.7784 126.364 64.3977V57.8864ZM131.426 62.0625V66H130.42V57.2727H131.426V60.4773H131.511C131.665 60.1392 131.895 59.8707 132.202 59.6719C132.511 59.4702 132.923 59.3693 133.438 59.3693C133.884 59.3693 134.274 59.4588 134.609 59.6378C134.945 59.8139 135.205 60.0852 135.389 60.4517C135.577 60.8153 135.67 61.2784 135.67 61.8409V66H134.665V61.9091C134.665 61.3892 134.53 60.9872 134.26 60.7031C133.993 60.4162 133.622 60.2727 133.148 60.2727C132.818 60.2727 132.523 60.3423 132.261 60.4815C132.003 60.6207 131.798 60.8239 131.648 61.0909C131.5 61.358 131.426 61.6818 131.426 62.0625ZM137.51 66V59.4545H138.516V66H137.51ZM138.022 58.3636C137.826 58.3636 137.657 58.2969 137.515 58.1634C137.375 58.0298 137.306 57.8693 137.306 57.6818C137.306 57.4943 137.375 57.3338 137.515 57.2003C137.657 57.0668 137.826 57 138.022 57C138.218 57 138.385 57.0668 138.525 57.2003C138.667 57.3338 138.738 57.4943 138.738 57.6818C138.738 57.8693 138.667 58.0298 138.525 58.1634C138.385 58.2969 138.218 58.3636 138.022 58.3636ZM141.364 62.0625V66H140.358V59.4545H141.33V60.4773H141.415C141.568 60.1449 141.801 59.8778 142.114 59.6761C142.426 59.4716 142.83 59.3693 143.324 59.3693C143.767 59.3693 144.155 59.4602 144.487 59.642C144.82 59.821 145.078 60.0938 145.263 60.4602C145.447 60.8239 145.54 61.2841 145.54 61.8409V66H144.534V61.9091C144.534 61.3949 144.401 60.9943 144.134 60.7074C143.866 60.4176 143.5 60.2727 143.034 60.2727C142.713 60.2727 142.426 60.3423 142.173 60.4815C141.923 60.6207 141.726 60.8239 141.581 61.0909C141.436 61.358 141.364 61.6818 141.364 62.0625ZM150.02 68.5909C149.534 68.5909 149.116 68.5284 148.767 68.4034C148.417 68.2812 148.126 68.1193 147.893 67.9176C147.663 67.7188 147.48 67.5057 147.343 67.2784L148.145 66.7159C148.235 66.8352 148.35 66.9716 148.49 67.125C148.629 67.2812 148.819 67.4162 149.061 67.5298C149.305 67.6463 149.625 67.7045 150.02 67.7045C150.548 67.7045 150.984 67.5767 151.328 67.321C151.672 67.0653 151.843 66.6648 151.843 66.1193V64.7898H151.758C151.684 64.9091 151.579 65.0568 151.443 65.233C151.309 65.4062 151.116 65.5611 150.863 65.6974C150.613 65.831 150.275 65.8977 149.849 65.8977C149.321 65.8977 148.846 65.7727 148.426 65.5227C148.008 65.2727 147.677 64.9091 147.433 64.4318C147.191 63.9545 147.071 63.375 147.071 62.6932C147.071 62.0227 147.189 61.4389 147.424 60.9418C147.66 60.4418 147.988 60.0554 148.409 59.7827C148.829 59.5071 149.315 59.3693 149.866 59.3693C150.292 59.3693 150.63 59.4403 150.88 59.5824C151.133 59.7216 151.326 59.8807 151.46 60.0597C151.596 60.2358 151.701 60.3807 151.775 60.4943H151.877V59.4545H152.849V66.1875C152.849 66.75 152.721 67.2074 152.466 67.5597C152.213 67.9148 151.872 68.1747 151.443 68.3395C151.017 68.5071 150.542 68.5909 150.02 68.5909ZM149.985 64.9943C150.389 64.9943 150.73 64.902 151.008 64.7173C151.287 64.5327 151.498 64.267 151.643 63.9205C151.788 63.5739 151.86 63.1591 151.86 62.6761C151.86 62.2045 151.789 61.7884 151.647 61.4276C151.505 61.0668 151.295 60.7841 151.017 60.5795C150.738 60.375 150.395 60.2727 149.985 60.2727C149.559 60.2727 149.204 60.3807 148.92 60.5966C148.639 60.8125 148.427 61.1023 148.285 61.4659C148.146 61.8295 148.076 62.233 148.076 62.6761C148.076 63.1307 148.147 63.5327 148.289 63.8821C148.434 64.2287 148.647 64.5014 148.929 64.7003C149.213 64.8963 149.565 64.9943 149.985 64.9943ZM159.599 59.4545C159.548 59.0227 159.341 58.6875 158.977 58.4489C158.613 58.2102 158.167 58.0909 157.639 58.0909C157.252 58.0909 156.914 58.1534 156.625 58.2784C156.338 58.4034 156.113 58.5753 155.951 58.794C155.792 59.0128 155.713 59.2614 155.713 59.5398C155.713 59.7727 155.768 59.973 155.879 60.1406C155.993 60.3054 156.137 60.4432 156.314 60.554C156.49 60.6619 156.674 60.7514 156.868 60.8224C157.061 60.8906 157.238 60.946 157.4 60.9886L158.287 61.2273C158.514 61.2869 158.767 61.3693 159.045 61.4744C159.326 61.5795 159.595 61.723 159.85 61.9048C160.109 62.0838 160.322 62.3139 160.49 62.5952C160.657 62.8764 160.741 63.2216 160.741 63.6307C160.741 64.1023 160.618 64.5284 160.37 64.9091C160.126 65.2898 159.768 65.5923 159.297 65.8168C158.828 66.0412 158.258 66.1534 157.588 66.1534C156.963 66.1534 156.422 66.0526 155.964 65.8509C155.51 65.6491 155.152 65.3679 154.89 65.0071C154.632 64.6463 154.485 64.2273 154.451 63.75H155.542C155.571 64.0795 155.681 64.3523 155.875 64.5682C156.071 64.7812 156.318 64.9403 156.616 65.0455C156.917 65.1477 157.241 65.1989 157.588 65.1989C157.991 65.1989 158.353 65.1335 158.674 65.0028C158.995 64.8693 159.25 64.6847 159.437 64.4489C159.625 64.2102 159.718 63.9318 159.718 63.6136C159.718 63.3239 159.637 63.0881 159.475 62.9062C159.314 62.7244 159.1 62.5767 158.836 62.4631C158.572 62.3494 158.287 62.25 157.98 62.1648L156.906 61.858C156.224 61.6619 155.684 61.3821 155.287 61.0185C154.889 60.6548 154.69 60.179 154.69 59.5909C154.69 59.1023 154.822 58.6761 155.086 58.3125C155.353 57.946 155.711 57.6619 156.16 57.4602C156.612 57.2557 157.116 57.1534 157.673 57.1534C158.235 57.1534 158.735 57.2543 159.173 57.456C159.61 57.6548 159.957 57.9276 160.213 58.2741C160.471 58.6207 160.608 59.0142 160.622 59.4545H159.599ZM165.189 59.4545V60.3068H161.797V59.4545H165.189ZM162.786 57.8864H163.791V64.125C163.791 64.4091 163.832 64.6222 163.915 64.7642C164 64.9034 164.108 64.9972 164.239 65.0455C164.372 65.0909 164.513 65.1136 164.661 65.1136C164.771 65.1136 164.862 65.108 164.933 65.0966C165.004 65.0824 165.061 65.071 165.104 65.0625L165.308 65.9659C165.24 65.9915 165.145 66.017 165.023 66.0426C164.901 66.071 164.746 66.0852 164.558 66.0852C164.274 66.0852 163.996 66.0241 163.723 65.902C163.453 65.7798 163.229 65.5938 163.05 65.3438C162.874 65.0938 162.786 64.7784 162.786 64.3977V57.8864ZM166.702 66V59.4545H167.673V60.4432H167.741C167.861 60.1193 168.077 59.8565 168.389 59.6548C168.702 59.4531 169.054 59.3523 169.446 59.3523C169.52 59.3523 169.612 59.3537 169.723 59.3565C169.834 59.3594 169.918 59.3636 169.974 59.3693V60.392C169.94 60.3835 169.862 60.3707 169.74 60.3537C169.621 60.3338 169.494 60.3239 169.361 60.3239C169.043 60.3239 168.759 60.3906 168.509 60.5241C168.261 60.6548 168.065 60.8366 167.92 61.0696C167.778 61.2997 167.707 61.5625 167.707 61.858V66H166.702ZM171.167 66V59.4545H172.172V66H171.167ZM171.678 58.3636C171.482 58.3636 171.313 58.2969 171.171 58.1634C171.032 58.0298 170.962 57.8693 170.962 57.6818C170.962 57.4943 171.032 57.3338 171.171 57.2003C171.313 57.0668 171.482 57 171.678 57C171.874 57 172.042 57.0668 172.181 57.2003C172.323 57.3338 172.394 57.4943 172.394 57.6818C172.394 57.8693 172.323 58.0298 172.181 58.1634C172.042 58.2969 171.874 58.3636 171.678 58.3636ZM175.02 62.0625V66H174.014V59.4545H174.986V60.4773H175.071C175.224 60.1449 175.457 59.8778 175.77 59.6761C176.082 59.4716 176.486 59.3693 176.98 59.3693C177.423 59.3693 177.811 59.4602 178.143 59.642C178.476 59.821 178.734 60.0938 178.919 60.4602C179.104 60.8239 179.196 61.2841 179.196 61.8409V66H178.19V61.9091C178.19 61.3949 178.057 60.9943 177.79 60.7074C177.523 60.4176 177.156 60.2727 176.69 60.2727C176.369 60.2727 176.082 60.3423 175.83 60.4815C175.58 60.6207 175.382 60.8239 175.237 61.0909C175.092 61.358 175.02 61.6818 175.02 62.0625ZM183.676 68.5909C183.19 68.5909 182.772 68.5284 182.423 68.4034C182.074 68.2812 181.782 68.1193 181.549 67.9176C181.319 67.7188 181.136 67.5057 181 67.2784L181.801 66.7159C181.892 66.8352 182.007 66.9716 182.146 67.125C182.285 67.2812 182.475 67.4162 182.717 67.5298C182.961 67.6463 183.281 67.7045 183.676 67.7045C184.204 67.7045 184.64 67.5767 184.984 67.321C185.328 67.0653 185.5 66.6648 185.5 66.1193V64.7898H185.414C185.341 64.9091 185.235 65.0568 185.099 65.233C184.966 65.4062 184.772 65.5611 184.52 65.6974C184.27 65.831 183.931 65.8977 183.505 65.8977C182.977 65.8977 182.502 65.7727 182.082 65.5227C181.664 65.2727 181.333 64.9091 181.089 64.4318C180.848 63.9545 180.727 63.375 180.727 62.6932C180.727 62.0227 180.845 61.4389 181.081 60.9418C181.316 60.4418 181.645 60.0554 182.065 59.7827C182.485 59.5071 182.971 59.3693 183.522 59.3693C183.949 59.3693 184.287 59.4403 184.537 59.5824C184.789 59.7216 184.983 59.8807 185.116 60.0597C185.252 60.2358 185.358 60.3807 185.431 60.4943H185.534V59.4545H186.505V66.1875C186.505 66.75 186.377 67.2074 186.122 67.5597C185.869 67.9148 185.528 68.1747 185.099 68.3395C184.673 68.5071 184.199 68.5909 183.676 68.5909ZM183.642 64.9943C184.045 64.9943 184.386 64.902 184.664 64.7173C184.943 64.5327 185.154 64.267 185.299 63.9205C185.444 63.5739 185.517 63.1591 185.517 62.6761C185.517 62.2045 185.446 61.7884 185.304 61.4276C185.162 61.0668 184.951 60.7841 184.673 60.5795C184.395 60.375 184.051 60.2727 183.642 60.2727C183.216 60.2727 182.86 60.3807 182.576 60.5966C182.295 60.8125 182.083 61.1023 181.941 61.4659C181.802 61.8295 181.733 62.233 181.733 62.6761C181.733 63.1307 181.804 63.5327 181.946 63.8821C182.091 64.2287 182.304 64.5014 182.585 64.7003C182.869 64.8963 183.221 64.9943 183.642 64.9943Z" fill="white"/>
<path d="M125 62.071H187.426V62.8892H125V62.071Z" fill="white"/>
<path d="M114.767 98.4545V99.3068H111.375V98.4545H114.767ZM112.364 96.8864H113.369V103.125C113.369 103.409 113.411 103.622 113.493 103.764C113.578 103.903 113.686 103.997 113.817 104.045C113.95 104.091 114.091 104.114 114.239 104.114C114.349 104.114 114.44 104.108 114.511 104.097C114.582 104.082 114.639 104.071 114.682 104.062L114.886 104.966C114.818 104.991 114.723 105.017 114.601 105.043C114.479 105.071 114.324 105.085 114.136 105.085C113.852 105.085 113.574 105.024 113.301 104.902C113.031 104.78 112.807 104.594 112.628 104.344C112.452 104.094 112.364 103.778 112.364 103.398V96.8864ZM117.426 101.062V105H116.42V96.2727H117.426V99.4773H117.511C117.665 99.1392 117.895 98.8707 118.202 98.6719C118.511 98.4702 118.923 98.3693 119.438 98.3693C119.884 98.3693 120.274 98.4588 120.609 98.6378C120.945 98.8139 121.205 99.0852 121.389 99.4517C121.577 99.8153 121.67 100.278 121.67 100.841V105H120.665V100.909C120.665 100.389 120.53 99.9872 120.26 99.7031C119.993 99.4162 119.622 99.2727 119.148 99.2727C118.818 99.2727 118.523 99.3423 118.261 99.4815C118.003 99.6207 117.798 99.8239 117.648 100.091C117.5 100.358 117.426 100.682 117.426 101.062ZM123.51 105V98.4545H124.516V105H123.51ZM124.022 97.3636C123.826 97.3636 123.657 97.2969 123.515 97.1634C123.375 97.0298 123.306 96.8693 123.306 96.6818C123.306 96.4943 123.375 96.3338 123.515 96.2003C123.657 96.0668 123.826 96 124.022 96C124.218 96 124.385 96.0668 124.525 96.2003C124.667 96.3338 124.738 96.4943 124.738 96.6818C124.738 96.8693 124.667 97.0298 124.525 97.1634C124.385 97.2969 124.218 97.3636 124.022 97.3636ZM127.364 101.062V105H126.358V98.4545H127.33V99.4773H127.415C127.568 99.1449 127.801 98.8778 128.114 98.6761C128.426 98.4716 128.83 98.3693 129.324 98.3693C129.767 98.3693 130.155 98.4602 130.487 98.642C130.82 98.821 131.078 99.0938 131.263 99.4602C131.447 99.8239 131.54 100.284 131.54 100.841V105H130.534V100.909C130.534 100.395 130.401 99.9943 130.134 99.7074C129.866 99.4176 129.5 99.2727 129.034 99.2727C128.713 99.2727 128.426 99.3423 128.173 99.4815C127.923 99.6207 127.726 99.8239 127.581 100.091C127.436 100.358 127.364 100.682 127.364 101.062ZM136.02 107.591C135.534 107.591 135.116 107.528 134.767 107.403C134.417 107.281 134.126 107.119 133.893 106.918C133.663 106.719 133.48 106.506 133.343 106.278L134.145 105.716C134.235 105.835 134.35 105.972 134.49 106.125C134.629 106.281 134.819 106.416 135.061 106.53C135.305 106.646 135.625 106.705 136.02 106.705C136.548 106.705 136.984 106.577 137.328 106.321C137.672 106.065 137.843 105.665 137.843 105.119V103.79H137.758C137.684 103.909 137.579 104.057 137.443 104.233C137.309 104.406 137.116 104.561 136.863 104.697C136.613 104.831 136.275 104.898 135.849 104.898C135.321 104.898 134.846 104.773 134.426 104.523C134.008 104.273 133.677 103.909 133.433 103.432C133.191 102.955 133.071 102.375 133.071 101.693C133.071 101.023 133.189 100.439 133.424 99.9418C133.66 99.4418 133.988 99.0554 134.409 98.7827C134.829 98.5071 135.315 98.3693 135.866 98.3693C136.292 98.3693 136.63 98.4403 136.88 98.5824C137.133 98.7216 137.326 98.8807 137.46 99.0597C137.596 99.2358 137.701 99.3807 137.775 99.4943H137.877V98.4545H138.849V105.188C138.849 105.75 138.721 106.207 138.466 106.56C138.213 106.915 137.872 107.175 137.443 107.339C137.017 107.507 136.542 107.591 136.02 107.591ZM135.985 103.994C136.389 103.994 136.73 103.902 137.008 103.717C137.287 103.533 137.498 103.267 137.643 102.92C137.788 102.574 137.86 102.159 137.86 101.676C137.86 101.205 137.789 100.788 137.647 100.428C137.505 100.067 137.295 99.7841 137.017 99.5795C136.738 99.375 136.395 99.2727 135.985 99.2727C135.559 99.2727 135.204 99.3807 134.92 99.5966C134.639 99.8125 134.427 100.102 134.285 100.466C134.146 100.83 134.076 101.233 134.076 101.676C134.076 102.131 134.147 102.533 134.289 102.882C134.434 103.229 134.647 103.501 134.929 103.7C135.213 103.896 135.565 103.994 135.985 103.994Z" fill="white"/>
</svg>
